<?xml version="1.0" standalone="no"?>
<!DOCTYPE svg PUBLIC "-//W3C//DTD SVG 20010904//EN"
 "http://www.w3.org/TR/2001/REC-SVG-20010904/DTD/svg10.dtd">
<svg version="1.0" xmlns="http://www.w3.org/2000/svg"
 width="32.000000pt" height="32.000000pt" viewBox="0 0 32.000000 32.000000"
 preserveAspectRatio="xMidYMid meet">

<g transform="translate(0.000000,32.000000) scale(0.100000,-0.100000)"
fill="#000000" stroke="none">
<path d="M43 253 c-8 -3 -13 -20 -12 -41 0 -20 3 -30 6 -22 3 8 11 18 17 22 8
5 7 8 -1 8 -19 0 -15 18 5 22 9 2 13 6 7 9 -5 4 -16 4 -22 2z"/>
<path d="M96 247 c-11 -8 -17 -23 -14 -38 2 -19 9 -24 32 -24 40 0 56 27 32
54 -22 25 -26 25 -50 8z m44 -27 c0 -24 -26 -38 -42 -22 -16 16 -2 42 22 42
13 0 20 -7 20 -20z"/>
<path d="M174 249 c-3 -5 4 -9 15 -9 12 0 21 -4 21 -10 0 -5 -9 -10 -20 -10
-14 0 -20 -7 -20 -22 1 -22 1 -22 12 -4 11 19 11 19 26 0 11 -14 13 -15 9 -3
-3 9 -1 21 5 27 6 6 8 15 4 20 -8 14 -45 22 -52 11z"/>
<path d="M37 132 c6 -4 13 -21 16 -37 l4 -30 2 32 c0 17 7 34 14 36 6 3 -1 6
-18 6 -16 0 -25 -3 -18 -7z"/>
<path d="M90 105 c0 -32 3 -35 28 -34 16 1 20 3 10 6 -21 5 -23 19 -5 26 10 4
10 6 0 6 -19 1 -16 19 5 24 10 3 6 5 -10 6 -25 1 -28 -2 -28 -34z"/>
<path d="M156 125 c-11 -29 -7 -44 15 -56 17 -9 24 -8 36 4 13 13 12 14 -11
10 -18 -4 -28 0 -32 12 -10 26 12 42 37 26 18 -10 20 -10 17 1 -7 20 -54 22
-62 3z"/>
<path d="M242 105 c0 -22 2 -32 5 -22 5 21 33 23 33 2 0 -8 5 -15 10 -15 6 0
10 16 10 35 0 19 -4 35 -10 35 -5 0 -10 -7 -10 -15 0 -21 -28 -19 -33 3 -3 9
-5 -1 -5 -23z"/>
</g>
</svg>
